<mxfile host="app.diagrams.net" modified="2024-04-01T00:13:47.183Z" agent="Mozilla/5.0 (Windows NT 10.0; Win64; x64) AppleWebKit/537.36 (KHTML, like Gecko) Chrome/123.0.0.0 Safari/537.36" etag="tiY0IViql0YsKcPD53nD" version="24.2.1" type="device">
  <diagram name="Страница — 1" id="hkn43C2hHXiVWJsXLN0N">
    <mxGraphModel dx="988" dy="523" grid="1" gridSize="10" guides="1" tooltips="1" connect="1" arrows="1" fold="1" page="1" pageScale="1" pageWidth="583" pageHeight="827" math="0" shadow="0">
      <root>
        <mxCell id="0" />
        <mxCell id="1" parent="0" />
        <mxCell id="an5Z5J0pkEpVs_l8PtT2-15" style="edgeStyle=orthogonalEdgeStyle;rounded=0;orthogonalLoop=1;jettySize=auto;html=1;exitX=0.5;exitY=0;exitDx=0;exitDy=0;exitPerimeter=0;endArrow=open;endFill=0;startArrow=cross;startFill=0;entryX=-0.001;entryY=0.511;entryDx=0;entryDy=0;entryPerimeter=0;" parent="1" source="eKhRr3B1XAOLILvqetzO-1" target="an5Z5J0pkEpVs_l8PtT2-7" edge="1">
          <mxGeometry relative="1" as="geometry">
            <Array as="points">
              <mxPoint x="65" y="270" />
              <mxPoint x="150" y="270" />
            </Array>
          </mxGeometry>
        </mxCell>
        <mxCell id="eKhRr3B1XAOLILvqetzO-1" value="Читатель" style="shape=umlActor;verticalLabelPosition=bottom;verticalAlign=top;html=1;outlineConnect=0;" parent="1" vertex="1">
          <mxGeometry x="50" y="290" width="30" height="60" as="geometry" />
        </mxCell>
        <mxCell id="an5Z5J0pkEpVs_l8PtT2-7" value="Сделать заказ" style="ellipse;whiteSpace=wrap;html=1;" parent="1" vertex="1">
          <mxGeometry x="150" y="230" width="180" height="80" as="geometry" />
        </mxCell>
        <mxCell id="an5Z5J0pkEpVs_l8PtT2-8" value="Передать подтверждение статуса заказа" style="ellipse;whiteSpace=wrap;html=1;" parent="1" vertex="1">
          <mxGeometry x="147.5" y="510" width="175" height="80" as="geometry" />
        </mxCell>
        <mxCell id="an5Z5J0pkEpVs_l8PtT2-17" style="edgeStyle=orthogonalEdgeStyle;rounded=0;orthogonalLoop=1;jettySize=auto;html=1;exitX=0;exitY=1;exitDx=0;exitDy=0;exitPerimeter=0;entryX=1;entryY=0.5;entryDx=0;entryDy=0;endArrow=open;endFill=0;startArrow=cross;startFill=0;" parent="1" source="an5Z5J0pkEpVs_l8PtT2-9" target="an5Z5J0pkEpVs_l8PtT2-8" edge="1">
          <mxGeometry relative="1" as="geometry" />
        </mxCell>
        <mxCell id="an5Z5J0pkEpVs_l8PtT2-28" style="edgeStyle=orthogonalEdgeStyle;rounded=0;orthogonalLoop=1;jettySize=auto;html=1;exitX=1;exitY=0.3333333333333333;exitDx=0;exitDy=0;exitPerimeter=0;entryX=0;entryY=0.5;entryDx=0;entryDy=0;endArrow=open;endFill=0;startArrow=cross;startFill=0;" parent="1" source="an5Z5J0pkEpVs_l8PtT2-9" target="an5Z5J0pkEpVs_l8PtT2-27" edge="1">
          <mxGeometry relative="1" as="geometry" />
        </mxCell>
        <mxCell id="an5Z5J0pkEpVs_l8PtT2-31" style="edgeStyle=orthogonalEdgeStyle;rounded=0;orthogonalLoop=1;jettySize=auto;html=1;exitX=0.5;exitY=0.5;exitDx=0;exitDy=0;exitPerimeter=0;entryX=0;entryY=0.5;entryDx=0;entryDy=0;endArrow=open;endFill=0;startArrow=cross;startFill=0;" parent="1" source="an5Z5J0pkEpVs_l8PtT2-9" target="an5Z5J0pkEpVs_l8PtT2-30" edge="1">
          <mxGeometry relative="1" as="geometry">
            <Array as="points">
              <mxPoint x="580" y="330" />
              <mxPoint x="580" y="320" />
            </Array>
          </mxGeometry>
        </mxCell>
        <mxCell id="an5Z5J0pkEpVs_l8PtT2-40" style="edgeStyle=orthogonalEdgeStyle;rounded=0;orthogonalLoop=1;jettySize=auto;html=1;exitX=1;exitY=1;exitDx=0;exitDy=0;exitPerimeter=0;entryX=0.5;entryY=0;entryDx=0;entryDy=0;endArrow=open;endFill=0;startArrow=cross;startFill=0;" parent="1" source="an5Z5J0pkEpVs_l8PtT2-9" target="an5Z5J0pkEpVs_l8PtT2-36" edge="1">
          <mxGeometry relative="1" as="geometry" />
        </mxCell>
        <mxCell id="an5Z5J0pkEpVs_l8PtT2-9" value="Библиотекарь" style="shape=umlActor;verticalLabelPosition=bottom;verticalAlign=top;html=1;outlineConnect=0;" parent="1" vertex="1">
          <mxGeometry x="420" y="300" width="30" height="60" as="geometry" />
        </mxCell>
        <mxCell id="an5Z5J0pkEpVs_l8PtT2-18" style="edgeStyle=orthogonalEdgeStyle;rounded=0;orthogonalLoop=1;jettySize=auto;html=1;entryX=1;entryY=1;entryDx=0;entryDy=0;entryPerimeter=0;endArrow=open;endFill=0;startArrow=cross;startFill=0;exitX=0;exitY=0.5;exitDx=0;exitDy=0;" parent="1" target="eKhRr3B1XAOLILvqetzO-1" edge="1" source="an5Z5J0pkEpVs_l8PtT2-8">
          <mxGeometry relative="1" as="geometry">
            <mxPoint x="150" y="500" as="sourcePoint" />
          </mxGeometry>
        </mxCell>
        <mxCell id="an5Z5J0pkEpVs_l8PtT2-27" value="Поиск книги по заказу" style="ellipse;whiteSpace=wrap;html=1;" parent="1" vertex="1">
          <mxGeometry x="655" y="190" width="160" height="80" as="geometry" />
        </mxCell>
        <mxCell id="an5Z5J0pkEpVs_l8PtT2-30" value="Удаление данных о клиенте" style="ellipse;whiteSpace=wrap;html=1;" parent="1" vertex="1">
          <mxGeometry x="660" y="280" width="150" height="80" as="geometry" />
        </mxCell>
        <mxCell id="an5Z5J0pkEpVs_l8PtT2-36" value="Проверка данных о сроках сдачи" style="ellipse;whiteSpace=wrap;html=1;" parent="1" vertex="1">
          <mxGeometry x="620" y="470" width="200" height="80" as="geometry" />
        </mxCell>
        <mxCell id="9iFMbr6CGy9B2aUeOUEn-2" value="Отменить заказ" style="ellipse;whiteSpace=wrap;html=1;" vertex="1" parent="1">
          <mxGeometry x="147.5" y="318" width="180" height="80" as="geometry" />
        </mxCell>
        <mxCell id="9iFMbr6CGy9B2aUeOUEn-4" style="edgeStyle=orthogonalEdgeStyle;rounded=0;orthogonalLoop=1;jettySize=auto;html=1;endArrow=open;endFill=0;startArrow=cross;startFill=0;entryX=-0.004;entryY=0.532;entryDx=0;entryDy=0;entryPerimeter=0;" edge="1" parent="1" target="9iFMbr6CGy9B2aUeOUEn-2">
          <mxGeometry relative="1" as="geometry">
            <mxPoint x="70" y="310" as="sourcePoint" />
            <mxPoint x="137.5000000000001" y="350" as="targetPoint" />
            <Array as="points">
              <mxPoint x="120" y="310" />
              <mxPoint x="120" y="360" />
              <mxPoint x="147" y="360" />
            </Array>
          </mxGeometry>
        </mxCell>
        <mxCell id="9iFMbr6CGy9B2aUeOUEn-6" style="edgeStyle=orthogonalEdgeStyle;rounded=0;orthogonalLoop=1;jettySize=auto;html=1;exitX=1;exitY=0.5;exitDx=0;exitDy=0;endArrow=open;endFill=0;startArrow=cross;startFill=0;entryX=0.5;entryY=0;entryDx=0;entryDy=0;entryPerimeter=0;" edge="1" parent="1" source="an5Z5J0pkEpVs_l8PtT2-7" target="an5Z5J0pkEpVs_l8PtT2-9">
          <mxGeometry relative="1" as="geometry">
            <mxPoint x="350" y="270" as="sourcePoint" />
            <mxPoint x="435" y="251" as="targetPoint" />
            <Array as="points">
              <mxPoint x="435" y="270" />
            </Array>
          </mxGeometry>
        </mxCell>
        <mxCell id="9iFMbr6CGy9B2aUeOUEn-7" style="edgeStyle=orthogonalEdgeStyle;rounded=0;orthogonalLoop=1;jettySize=auto;html=1;exitX=1;exitY=0.5;exitDx=0;exitDy=0;endArrow=open;endFill=0;startArrow=cross;startFill=0;entryX=0;entryY=0.3333333333333333;entryDx=0;entryDy=0;entryPerimeter=0;" edge="1" parent="1" source="9iFMbr6CGy9B2aUeOUEn-2" target="an5Z5J0pkEpVs_l8PtT2-9">
          <mxGeometry relative="1" as="geometry">
            <mxPoint x="335" y="368" as="sourcePoint" />
            <mxPoint x="420" y="349" as="targetPoint" />
            <Array as="points">
              <mxPoint x="335" y="358" />
              <mxPoint x="335" y="320" />
            </Array>
          </mxGeometry>
        </mxCell>
        <mxCell id="9iFMbr6CGy9B2aUeOUEn-8" value="Уведомить о сроках сдачи" style="ellipse;whiteSpace=wrap;html=1;" vertex="1" parent="1">
          <mxGeometry x="147.5" y="420" width="175" height="80" as="geometry" />
        </mxCell>
        <mxCell id="9iFMbr6CGy9B2aUeOUEn-9" style="edgeStyle=orthogonalEdgeStyle;rounded=0;orthogonalLoop=1;jettySize=auto;html=1;entryX=1;entryY=0.5;entryDx=0;entryDy=0;endArrow=open;endFill=0;startArrow=cross;startFill=0;" edge="1" parent="1" target="9iFMbr6CGy9B2aUeOUEn-8">
          <mxGeometry relative="1" as="geometry">
            <mxPoint x="437.5" y="330" as="sourcePoint" />
            <mxPoint x="340" y="460" as="targetPoint" />
            <Array as="points">
              <mxPoint x="380" y="330" />
              <mxPoint x="380" y="460" />
            </Array>
          </mxGeometry>
        </mxCell>
        <mxCell id="9iFMbr6CGy9B2aUeOUEn-10" style="edgeStyle=orthogonalEdgeStyle;rounded=0;orthogonalLoop=1;jettySize=auto;html=1;endArrow=open;endFill=0;startArrow=cross;startFill=0;exitX=0;exitY=0.5;exitDx=0;exitDy=0;entryX=0.5;entryY=0.5;entryDx=0;entryDy=0;entryPerimeter=0;" edge="1" parent="1" source="9iFMbr6CGy9B2aUeOUEn-8" target="eKhRr3B1XAOLILvqetzO-1">
          <mxGeometry relative="1" as="geometry">
            <mxPoint x="162.5" y="470" as="sourcePoint" />
            <mxPoint x="80" y="330" as="targetPoint" />
            <Array as="points">
              <mxPoint x="100" y="460" />
              <mxPoint x="100" y="320" />
            </Array>
          </mxGeometry>
        </mxCell>
      </root>
    </mxGraphModel>
  </diagram>
</mxfile>
